<svg xmlns="http://www.w3.org/2000/svg" viewBox="0 0 73.71 126.34"><defs><style>.cls-1{fill:none;}.cls-2{fill:#99ecdc;}</style></defs><g id="Layer_2" data-name="Layer 2"><g id="Layer_1-2" data-name="Layer 1"><path class="cls-1" d="M68.72,30.74a12.2,12.2,0,0,0,1.37,0,.43.43,0,0,0,.22-.05.59.59,0,0,0,0-.24,3.93,3.93,0,0,0-.25-.81,9.61,9.61,0,0,0-1.78-2.72,35.6,35.6,0,0,0-13.76-9.4,13.63,13.63,0,0,0-4.4-1l-.17,0a4.42,4.42,0,0,0-.66.1.49.49,0,0,0-.19.07s0,0,0,.13.08.35.13.52c2.93.26,6.92,1.79,10.85,4.36C64.5,24.6,67.68,28,68.72,30.74Z"/><path class="cls-2" d="M48.42,23.39a13.17,13.17,0,0,1-3-4.84l-.06-.21a1.37,1.37,0,0,0-.16.18C43.41,21,47.25,26.46,53.74,30.7c5.68,3.72,11.5,5.28,14,3.95a17,17,0,0,1-4-1A39.37,39.37,0,0,1,48.42,23.39Z"/><path class="cls-2" d="M51.68,21.06A35.7,35.7,0,0,0,62,28.62a20.2,20.2,0,0,0,6,2.07,5.06,5.06,0,0,0,.68,0c-1-2.7-4.22-6.14-8.64-9-3.93-2.57-7.92-4.1-10.85-4.36a2.92,2.92,0,0,0,.19.52A11.46,11.46,0,0,0,51.68,21.06Z"/><path d="M8.46,36.51a1.72,1.72,0,0,0,1.95.77,4.76,4.76,0,0,1,.66-.09,7.32,7.32,0,0,0,6-7.4A21.08,21.08,0,0,1,2.94,22.26a26.6,26.6,0,0,0,.27,3.12A23.42,23.42,0,0,0,8.46,36.51Z"/><path d="M70,67.44a7.16,7.16,0,0,0-1-.6c-.17-.08-.35-.17-.52-.27l-.12-.06,0-.17a.61.61,0,0,1,0-.11,63.41,63.41,0,0,0,1.44-7.74c.36-2.8.58-5.8.69-9.44a29.73,29.73,0,0,0-.83-9l0-.12c-.08-.3-.16-.61-.21-.73l0,0h0a1.49,1.49,0,0,0-1.33-1.21,1.56,1.56,0,0,0-1.19.34,1.22,1.22,0,0,0-.39.81v.09a23.3,23.3,0,0,1,1.22,7.71,96.24,96.24,0,0,1-.7,11.19A58.12,58.12,0,0,1,65.31,67c-.17.58-.35,1.16-.53,1.76l-.16.51,1.6-.13.94,0A2.57,2.57,0,0,1,69,70.18a2.17,2.17,0,0,1,.29,1.8l-.14.5c-.16.58-.31,1.15-.46,1.73q-.35,1.46-.66,2.91a1.51,1.51,0,0,1-.79,1.11,3.37,3.37,0,0,1-1.22.32c-.71,0-1.42,0-2.17,0H63l0,.27c.43,7.06-1.29,13-5.25,18.1a26.89,26.89,0,0,1-16,10,1,1,0,0,0-.82,1,1.36,1.36,0,0,0,.58,1.07,1.6,1.6,0,0,0,1,.34,2.86,2.86,0,0,0,.63-.08c.34-.07.67-.14,1-.23a29.29,29.29,0,0,0,16-10.87,27.3,27.3,0,0,0,5.51-15c0-.4,0-.8.06-1.21l0-.73h.32a.88.88,0,0,0,.23,0,4.63,4.63,0,0,0,4.37-3.7c.15-.78.35-1.58.53-2.29l.18-.7c.07-.27.14-.54.22-.81s.17-.61.24-.91A4.72,4.72,0,0,0,70,67.44Z"/><path d="M29.46,106.7A26.77,26.77,0,0,1,13.69,96.05,24.21,24.21,0,0,1,9.23,84.12c-.11-1.2-.13-2.42-.14-3.65,0-.55,0-1.09,0-1.66v-.25H6a1.82,1.82,0,0,1-1.94-1.75,5.46,5.46,0,0,0-.18-1c-.14-.52-.29-1-.44-1.57L3.4,74c-.19-.67-.38-1.34-.56-2A2.23,2.23,0,0,1,3.29,70a2.67,2.67,0,0,1,2.42-.88c.46.07.9.1,1.37.13l.42,0-.13-.45A67.43,67.43,0,0,1,5,57c-.32-2.94-.49-5.95-.64-8.61a21.42,21.42,0,0,1,.48-6.3c.18-1,.17-1.26-.29-1.77l0,0-.37-.11a1.49,1.49,0,0,0-1.2.15,1.63,1.63,0,0,0-.76,1,17,17,0,0,0-.54,3.53c-.06,1.74-.06,3.57,0,5.45A79.59,79.59,0,0,0,2.86,61.62c.2,1.08.42,2.15.64,3.26l.21,1.05.19.83a7.07,7.07,0,0,0-1,.48,4.76,4.76,0,0,0-1.75,1.43A4.25,4.25,0,0,0,0,72.05,16.31,16.31,0,0,0,.46,73.9l.17.64c.07.27.16.54.25.82A9,9,0,0,1,1.27,77a4.42,4.42,0,0,0,3.14,3.94,10.45,10.45,0,0,0,1.18.26l.53.09.15,0v.16a27.4,27.4,0,0,0,.58,5.62c2.35,11.17,11,19.71,22.57,22.29a2.3,2.3,0,0,0,.51.06,1.68,1.68,0,0,0,.9-.23.83.83,0,0,0,.36-.62v-.52C31.17,107.13,29.89,106.8,29.46,106.7Z"/><path d="M73.6,29.56a9.8,9.8,0,0,0-1.71-3.5,28.59,28.59,0,0,0-6-6A37.54,37.54,0,0,0,54.43,14a14,14,0,0,0-4.18-.74,9.69,9.69,0,0,0-1.09.06,3.62,3.62,0,0,0-3.36,2.62,4,4,0,0,0,0,1.89c0,.17.08.35.14.53a12.6,12.6,0,0,0,2.9,4.6A38.74,38.74,0,0,0,64,33a15.66,15.66,0,0,0,4.67,1l.21,0,.43,0h.21l.75-.07a3.92,3.92,0,0,0,2.86-1.58A3.64,3.64,0,0,0,73.6,29.56Zm-2.81,1.5a.81.81,0,0,1-.65.3c-.43,0-.77.05-1.15.05a10,10,0,0,1-1-.07,21.13,21.13,0,0,1-6.17-2.13,36.27,36.27,0,0,1-10.54-7.7,12.53,12.53,0,0,1-2.38-3.36,5.62,5.62,0,0,1-.29-.9l0-.12c0-.06,0-.12,0-.19a.74.74,0,0,1,.65-1,5.91,5.91,0,0,1,.73-.11l.22,0a14.06,14.06,0,0,1,4.62,1,36.18,36.18,0,0,1,14,9.57,10.62,10.62,0,0,1,1.9,2.9,4.44,4.44,0,0,1,.28.95A.93.93,0,0,1,70.79,31.06Z"/><path d="M31.07,17.69a1.38,1.38,0,0,0-1.21-.84,35.24,35.24,0,0,0-13,5.18,1.72,1.72,0,0,0-.74,1.16.9.9,0,0,0,.25.75,1.07,1.07,0,0,0,.81.4,3.42,3.42,0,0,0,1-.22l1.75-.83A33.67,33.67,0,0,1,29,19.74l1.24-.26.38-.07.05,0A1.36,1.36,0,0,0,31.07,17.69Z"/><path d="M36.06,0a1.54,1.54,0,0,0-1.58,1.51,1.58,1.58,0,0,0,3.15,0A1.55,1.55,0,0,0,36.06,0Z"/><path d="M36.06,7.25a1.52,1.52,0,1,0,1.57,1.53A1.55,1.55,0,0,0,36.06,7.25Z"/><path d="M36,14.51a1.52,1.52,0,1,0,0,3,1.52,1.52,0,1,0,0-3Z"/><path d="M36.05,21.76a1.52,1.52,0,1,0,1.58,1.52A1.55,1.55,0,0,0,36.05,21.76Z"/><path d="M36.07,29a1.52,1.52,0,1,0,1.56,1.53A1.56,1.56,0,0,0,36.07,29Z"/><path d="M36.07,36.27a1.52,1.52,0,1,0,0,3,1.52,1.52,0,1,0,0-3Z"/><path d="M36.09,43.52a1.52,1.52,0,1,0-.07,3,1.52,1.52,0,1,0,.07-3Z"/><path d="M36,50.77a1.52,1.52,0,1,0,0,3,1.52,1.52,0,1,0,0-3Z"/><path d="M36,58a1.52,1.52,0,1,0,0,3,1.52,1.52,0,1,0,0-3Z"/><path d="M36.05,65.28a1.52,1.52,0,1,0,1.58,1.51A1.54,1.54,0,0,0,36.05,65.28Z"/><path d="M36.06,72.53a1.52,1.52,0,1,0,0,3,1.52,1.52,0,1,0,0-3Z"/><path d="M36.06,79.79a1.52,1.52,0,1,0,0,3,1.52,1.52,0,1,0,0-3Z"/><path d="M36,87a1.52,1.52,0,1,0,0,3,1.52,1.52,0,1,0,0-3Z"/><path d="M36.07,94.29a1.52,1.52,0,1,0,1.56,1.54A1.55,1.55,0,0,0,36.07,94.29Z"/><path d="M36.07,101.55a1.52,1.52,0,1,0,0,3,1.56,1.56,0,0,0,1.6-1.5A1.54,1.54,0,0,0,36.07,101.55Z"/><path d="M36.06,108.8a1.52,1.52,0,1,0,1.57,1.52A1.54,1.54,0,0,0,36.06,108.8Z"/><path d="M36.07,116.05a1.52,1.52,0,1,0,0,3,1.52,1.52,0,1,0,0-3Z"/><path d="M36.06,123.31a1.52,1.52,0,1,0,0,3,1.52,1.52,0,1,0,0-3Z"/></g></g></svg>