<svg xmlns="http://www.w3.org/2000/svg" viewBox="0 0 84.06 109.72"><defs><style>.cls-1{fill:none;}.cls-2{fill:#9ae8d9;}</style></defs><g id="Layer_2" data-name="Layer 2"><g id="Layer_1-2" data-name="Layer 1"><path class="cls-1" d="M80.68,77.4c0-2.65,0-5.29,0-7.94V69c0-.46,0-1,0-1.47a4.63,4.63,0,0,0-3.87-4.3,4.35,4.35,0,0,0-4.88,3.22c-.22.77-.53,1-1.26.94a8.74,8.74,0,0,0-1.62,0,1.14,1.14,0,0,1-.89-.19,1.33,1.33,0,0,1-.24-1,19.82,19.82,0,0,0,0-2.92,4.66,4.66,0,0,0-4.54-4.38h-.08a4.55,4.55,0,0,0-4.37,4.42c0,.32,0,.63,0,1,0,.16,0,.33,0,.5,0,.47,0,.86,0,1.19,0,.85,0,1.1-.14,1.23s-.5.18-1.81.18H55.8a.9.9,0,0,1-.56-.14.93.93,0,0,1-.19-.67V66c0-.85,0-1.81,0-2.75a4.46,4.46,0,0,0-8.91,0c0,1-.06,2.07,0,3.19a1.06,1.06,0,0,1-.22.82,1,1,0,0,1-.79.18c-.27,0-.55,0-.79,0H43.9c-1,0-1.33,0-1.47-.17s-.17-.47-.17-1.5v-29c0-.66,0-1.32,0-2v-.33c0-1.8,0-3.65,0-5.49a6.61,6.61,0,0,0-3.11-5.39,6.53,6.53,0,0,0-6.14-.4c-2.64,1.19-4,3.41-4,6.6q0,13.22,0,26.44,0,8,0,16c0,2.42-.79,3.83-2.56,4.58s-3.25.31-5-1.42c-1.47-1.44-3-2.87-4.47-4.26l-1.6-1.5a6.78,6.78,0,0,0-4.08-2c-.23,0-.47,0-.7,0a7.17,7.17,0,0,0-6.47,4.14,6.83,6.83,0,0,0,1.06,7.92c2.14,2.51,4.3,5,6.45,7.51l.53.61c4,4.71,8.64,10,13,15.19a9.22,9.22,0,0,0,5.68,3.57l42.06,0c5.2-1,8-4.76,7.85-10.46C80.61,89.79,80.65,83.49,80.68,77.4Z"/><path d="M11.49,37.05c.22.34.51.78.68,1l.25-.19.15-.12c.26-.2.65-.51,1.16-.86s.69-.5.14-1.37c-6-9.44-6.22-19.13-.58-28.8l.09-.16c.93-1.59.93-1.59-.57-2.82l-.1-.09c-.36-.29-.49-.3-.5-.3a1.7,1.7,0,0,0-.42.47A29.1,29.1,0,0,0,6.44,19.61,29.92,29.92,0,0,0,11,36.37Z"/><path d="M58.08,34.57c-1.13,1.78-1.13,1.78.42,3l.11.09a1.38,1.38,0,0,0,.48.3,1.47,1.47,0,0,0,.35-.4,29.87,29.87,0,0,0,5.43-17.38A28.69,28.69,0,0,0,60.21,4.9L60,4.52c-.3-.46-.66-1-.85-1.24l-.45.35c-.27.22-.65.52-1.14.86S57,5,57,5s0,.19.35.7A26.25,26.25,0,0,1,58.08,34.57Z"/><path class="cls-2" d="M46.72,26.57a12.42,12.42,0,0,0-2.1-14.72A12,12,0,0,0,32,8.65c-4.86,1.48-7.8,4.84-8.72,10a10.85,10.85,0,0,0,1.26,7.71l.15-.48a11.38,11.38,0,0,1,7.36-7.52,11.55,11.55,0,0,1,3.57-.58A11.31,11.31,0,0,1,42.3,20,11.56,11.56,0,0,1,46.72,26.57Z"/><path d="M80.53,61.19h0a8.09,8.09,0,0,0-7.72-.51,1.77,1.77,0,0,1-2.61-.88,7.58,7.58,0,0,0-11.88-2.26,1.76,1.76,0,0,1-2.64.05A6.83,6.83,0,0,0,48,56.21a1.93,1.93,0,0,1-1.85.08c-.59-.39-.63-1.13-.62-1.86,0-4.29,0-8.85,0-13.4a3.83,3.83,0,0,1,1.73-3.45c7-5.24,9.93-12.1,8.67-20.39A20.31,20.31,0,0,0,47.64,3.88,20.24,20.24,0,0,0,32.45.29c-8.32,1.48-13.83,6.19-16.37,14s-.74,14.94,5.34,21.25a7,7,0,0,0,1.49,1.09c1.14.7,2.43,1.5,2.71,3.17a20.55,20.55,0,0,1,.13,4.14V44c0,.56-.05,1.12-.05,1.68v4.39q0,10.58,0,21.14a2,2,0,0,0,0,.23,1.47,1.47,0,0,1-.62,1.65,1.44,1.44,0,0,1-1.8-.59,1.14,1.14,0,0,0-.18-.19c-1.36-1.26-2.7-2.52-4.05-3.79l-1.43-1.34a10.6,10.6,0,0,0-7.23-3,9.74,9.74,0,0,0-6.7,2.72c-4.45,4.2-4.94,10.22-1.18,14.64,6.71,7.9,13.39,15.63,21.34,24.81A8.86,8.86,0,0,0,30,109.53l.82.07a16.7,16.7,0,0,0,1.7.11q19.27,0,38.55,0c.58,0,1.16-.06,1.77-.11l.9-.08A11.83,11.83,0,0,0,84,97.93c.07-9.65.07-19.46,0-30A7.89,7.89,0,0,0,80.53,61.19ZM25.72,27.58v1.23c0,1.28,0,2.57,0,3.85v.13c.05.83-.25,1.31-.89,1.45l-.2,0a1.89,1.89,0,0,1-1.16-.6A16.24,16.24,0,0,1,18,23.06,17.84,17.84,0,0,1,48.33,8.14,17.56,17.56,0,0,1,53.48,20.9a17.25,17.25,0,0,1-5.27,12.44,1.49,1.49,0,0,0-.17.18,1.48,1.48,0,0,1-1.84.59,1.45,1.45,0,0,1-.63-1.61c0-.1,0-.18,0-.25,0-.95,0-1.9,0-2.84V28.35a10.24,10.24,0,0,0-4.16-7.16,9.72,9.72,0,0,0-8.89-1.41,9.87,9.87,0,0,0-6.4,6.54ZM73,106.94l-.13,0H30.82a9.83,9.83,0,0,1-6-3.74c-4.37-5.16-9-10.49-13-15.19l-.53-.62c-2.15-2.5-4.31-5-6.45-7.5a7.31,7.31,0,0,1-1.13-8.48,7.68,7.68,0,0,1,7.67-4.38,7.3,7.3,0,0,1,4.38,2.15l1.59,1.5c1.48,1.38,3,2.82,4.48,4.26,1.64,1.59,2.94,2,4.5,1.32s2.25-1.93,2.25-4.12q0-8,0-16,0-13.22,0-26.44c0-3.41,1.42-5.78,4.25-7.06a7.07,7.07,0,0,1,10,6.23c.06,1.85,0,3.71,0,5.51v.33c0,.66,0,1.32,0,2v29a9.67,9.67,0,0,0,0,1.13,9.14,9.14,0,0,0,1.1,0h.38c.25,0,.54,0,.83,0s.41,0,.42,0,.07-.08.06-.44c0-1.14,0-2.23,0-3.24a5,5,0,0,1,9.91,0c0,.94,0,1.92,0,2.77v.58c0,.2,0,.3.05.31h1.31a14.28,14.28,0,0,0,1.43,0c0-.19,0-.61,0-.86s0-.74,0-1.22c0-.16,0-.32,0-.49,0-.33,0-.66,0-1a5,5,0,0,1,4.86-4.88h.09a5.17,5.17,0,0,1,5,4.83,20.8,20.8,0,0,1,0,3c0,.4,0,.58.09.61s.2.09.49.06a9.74,9.74,0,0,1,1.71,0c.43,0,.57,0,.74-.57a4.82,4.82,0,0,1,5.42-3.58,5.12,5.12,0,0,1,4.31,4.75c0,.52,0,1,0,1.52v.41c0,2.65,0,5.29,0,7.94,0,6.09-.07,12.39.09,18.58C81.42,102,78.48,105.85,73,106.94Z"/></g></g></svg>