<svg id="Layer_1" data-name="Layer 1" xmlns="http://www.w3.org/2000/svg" viewBox="0 0 125.28 113.47"><defs><style>.cls-1{fill:#99ecdc;}.cls-2{fill:#424242;}</style></defs><g id="UI_and_UX" data-name="UI and UX"><circle class="cls-1" cx="67.15" cy="61.18" r="19.1"/><path class="cls-2" d="M125.4,33.29H70.07a7.32,7.32,0,0,0-6.9,4.91A1.36,1.36,0,0,0,64.45,40a1.37,1.37,0,0,0,1.33-.88A4.54,4.54,0,0,1,70.07,36H125.4A4.55,4.55,0,0,1,130,40.55L129.89,53H73.43V48.66a3.52,3.52,0,0,0-3.51-3.51H42.56A3.53,3.53,0,0,0,39,48.63V76a3.52,3.52,0,0,0,3.51,3.51h27.4A3.52,3.52,0,0,0,73.43,76l0-20.2,56.47.05,0,68.32-46.59,0V119.8a3.52,3.52,0,0,0-3.51-3.51H42.56A3.53,3.53,0,0,0,39,119.77v11.57a3.52,3.52,0,0,0,3.51,3.51H79.79a3.52,3.52,0,0,0,3.51-3.51l0-4.39,46.59,0v12.4a4.55,4.55,0,0,1-4.5,4.6H70.07a4.55,4.55,0,0,1-4.3-3.08,1.37,1.37,0,0,0-1.33-.88,1.35,1.35,0,0,0-1.27,1.81,7.32,7.32,0,0,0,6.9,4.91H125.4a7.33,7.33,0,0,0,7.31-7.31V40.6A7.33,7.33,0,0,0,125.4,33.29ZM70.66,74.87a1.89,1.89,0,0,1-1.89,1.89H43.7a1.89,1.89,0,0,1-1.89-1.89V49.8a1.89,1.89,0,0,1,1.89-1.89H68.77a1.89,1.89,0,0,1,1.89,1.89Zm9.88,55.33a1.89,1.89,0,0,1-1.89,1.89H43.7a1.89,1.89,0,0,1-1.89-1.89v-9.26A1.9,1.9,0,0,1,43.65,119h35a1.89,1.89,0,0,1,1.89,1.89Z" transform="translate(-35.09 -33.29)"/><path class="cls-2" d="M93.78,136.83a1.38,1.38,0,0,1,0-2.76h7.91a1.38,1.38,0,1,1,0,2.76Z" transform="translate(-35.09 -33.29)"/><path class="cls-2" d="M156.86,104.43h-15.5a3.52,3.52,0,0,0-3.51,3.51v15.5a3.52,3.52,0,0,0,3.51,3.51h15.5a3.52,3.52,0,0,0,3.51-3.51v-15.5A3.52,3.52,0,0,0,156.86,104.43Zm.75,17.87a1.89,1.89,0,0,1-1.89,1.89H142.5a1.89,1.89,0,0,1-1.89-1.89V109.08a1.89,1.89,0,0,1,1.89-1.89h13.21a1.89,1.89,0,0,1,1.89,1.89Z" transform="translate(-35.09 -33.29)"/><path class="cls-2" d="M52.28,127a1.38,1.38,0,0,1,0-2.76H70.07a1.38,1.38,0,1,1,0,2.76Z" transform="translate(-35.09 -33.29)"/><circle class="cls-2" cx="114.02" cy="82.4" r="2.24"/><path class="cls-2" d="M64.14,111.14a1.38,1.38,0,0,1-1.38-1.38V86a1.38,1.38,0,1,1,2.76,0h0v23.72a1.38,1.38,0,0,1-1.34,1.42Z" transform="translate(-35.09 -33.29)"/><path class="cls-2" d="M97.73,70.83A19.17,19.17,0,1,0,116.9,90h0A19.19,19.19,0,0,0,97.73,70.83Zm7.92,33.53a16.37,16.37,0,0,1-15.83,0l-.39-.26.1-.4a8.46,8.46,0,0,1,16.41,0l.08.46Zm3.44-2.55-.67.54-.3-.74a11.19,11.19,0,0,0-20.79,0l-.39.76-.58-.56a16.4,16.4,0,1,1,23.19-.47c-.15.16-.31.32-.47.47Z" transform="translate(-35.09 -33.29)"/><circle class="cls-2" cx="17.19" cy="76.47" r="1.38"/><circle class="cls-2" cx="9.29" cy="76.47" r="1.38"/><path class="cls-2" d="M36.47,111.14a1.38,1.38,0,1,1,1.38-1.38h0A1.38,1.38,0,0,1,36.47,111.14Z" transform="translate(-35.09 -33.29)"/><circle class="cls-2" cx="17.19" cy="68.57" r="1.38"/><circle class="cls-2" cx="9.28" cy="68.57" r="1.38"/><path class="cls-2" d="M36.47,103.24a1.38,1.38,0,1,1,1.38-1.38h0A1.38,1.38,0,0,1,36.47,103.24Z" transform="translate(-35.09 -33.29)"/><circle class="cls-2" cx="17.19" cy="60.66" r="1.38"/><circle class="cls-2" cx="9.29" cy="60.66" r="1.38"/><path class="cls-2" d="M36.47,95.33A1.38,1.38,0,1,1,37.85,94v0a1.38,1.38,0,0,1-1.38,1.38Z" transform="translate(-35.09 -33.29)"/><path class="cls-2" d="M97.73,79.88a6.17,6.17,0,1,0,6.17,6.17v0A6.18,6.18,0,0,0,97.73,79.88Zm0,9.68A3.51,3.51,0,1,1,101.25,86a3.51,3.51,0,0,1-3.52,3.56Z" transform="translate(-35.09 -33.29)"/><path class="cls-2" d="M48.33,71.62a1.38,1.38,0,0,1,0-2.76h5.93a1.38,1.38,0,1,1,0,2.76Z" transform="translate(-35.09 -33.29)"/><path class="cls-2" d="M155,83.48a1.38,1.38,0,1,1,1.38-1.38A1.38,1.38,0,0,1,155,83.48Z" transform="translate(-35.09 -33.29)"/><circle class="cls-2" cx="112.05" cy="48.81" r="1.38"/><circle class="cls-2" cx="104.14" cy="48.81" r="1.38"/><path class="cls-2" d="M123.42,83.48a1.38,1.38,0,1,1,1.38-1.38h0A1.38,1.38,0,0,1,123.42,83.48Z" transform="translate(-35.09 -33.29)"/><path class="cls-2" d="M155,75.57a1.38,1.38,0,1,1,1.38-1.38A1.38,1.38,0,0,1,155,75.57Z" transform="translate(-35.09 -33.29)"/><path class="cls-2" d="M123.42,75.57a1.38,1.38,0,1,1,1.38-1.38h0A1.38,1.38,0,0,1,123.42,75.57Z" transform="translate(-35.09 -33.29)"/><path class="cls-2" d="M155,67.67a1.38,1.38,0,1,1,1.38-1.38A1.38,1.38,0,0,1,155,67.67Z" transform="translate(-35.09 -33.29)"/><circle class="cls-2" cx="112.05" cy="33" r="1.38"/><circle class="cls-2" cx="104.14" cy="33" r="1.38"/><path class="cls-2" d="M123.42,67.67a1.38,1.38,0,1,1,1.38-1.38h0A1.38,1.38,0,0,1,123.42,67.67Z" transform="translate(-35.09 -33.29)"/><path class="cls-2" d="M48.33,63.72a1.38,1.38,0,0,1,0-2.76H64.14a1.38,1.38,0,0,1,0,2.76Z" transform="translate(-35.09 -33.29)"/><path class="cls-2" d="M48.33,55.81a1.38,1.38,0,1,1,0-2.76H64.14a1.38,1.38,0,0,1,0,2.76Z" transform="translate(-35.09 -33.29)"/><path class="cls-2" d="M139.23,49.88a1.38,1.38,0,1,1,0-2.76h7.9a1.38,1.38,0,0,1,0,2.76h-7.9Z" transform="translate(-35.09 -33.29)"/><path class="cls-2" d="M97.73,45.93a1.38,1.38,0,0,1,0-2.76h7.91a1.38,1.38,0,1,1,0,2.76Z" transform="translate(-35.09 -33.29)"/><circle class="cls-2" cx="54.74" cy="11.26" r="1.38"/><path class="cls-2" d="M139.23,42a1.38,1.38,0,1,1,0-2.76H155A1.38,1.38,0,0,1,155,42Z" transform="translate(-35.09 -33.29)"/></g></svg>