<svg xmlns="http://www.w3.org/2000/svg" viewBox="0 0 108 88"><defs><style>.cls-1{fill:#fff;}</style></defs><title>Asset 4</title><g id="Layer_2" data-name="Layer 2"><g id="Layer_1-2" data-name="Layer 1"><polygon class="cls-1" points="108 0 65.93 0 65.93 5 103 5 103 83 65.93 83 65.93 88 108 88 108 0"/><polygon class="cls-1" points="5 83 5 5 42 5 42 0 0 0 0 88 42 88 42 83 5 83"/><polygon class="cls-1" points="80 56.77 69.31 41 78.15 29.91 81.02 29.6 81.02 27.88 72.05 27.88 72.05 29.6 75.23 29.91 65.78 41.84 64.06 42.28 64.06 29.91 67.24 29.6 67.24 27.88 56.28 27.88 56.28 29.6 59.46 29.91 59.46 42.8 48.27 42.8 48.27 29.91 51.4 29.6 51.4 27.88 40.71 27.88 40.71 29.64 43.88 29.95 43.88 41.79 31.44 41.79 31.44 29.91 34.62 29.6 34.62 27.88 23.93 27.88 23.93 29.64 27.1 29.95 27.1 56.72 23.93 57.08 23.93 58.8 34.62 58.8 34.62 57.08 31.44 56.72 31.44 44.18 43.88 44.18 43.88 56.72 40.71 57.08 40.71 58.8 51.4 58.8 51.4 57.08 48.27 56.72 48.27 44.8 59.46 44.8 59.46 56.72 56.28 57.03 56.28 58.8 67.24 58.8 67.24 57.03 64.06 56.72 64.06 44.66 65.96 44.13 74.48 56.77 71.44 57.08 71.44 58.8 82.57 58.8 82.57 57.08 80 56.77"/></g></g></svg>