<?xml version="1.0" encoding="utf-8"?>
<!-- Generator: Adobe Illustrator 23.0.4, SVG Export Plug-In . SVG Version: 6.00 Build 0)  -->
<svg version="1.1" id="Layer_1" xmlns="http://www.w3.org/2000/svg" xmlns:xlink="http://www.w3.org/1999/xlink" x="0px" y="0px"
	 viewBox="0 0 108 88" style="enable-background:new 0 0 108 88;" xml:space="preserve">
<style type="text/css">
	.st0{fill:#FFFFFF;}
</style>
<title>Asset 4</title>
<g id="Layer_1-2">
	<polygon class="st0" points="108,0 65.9,0 65.9,5 103,5 103,83 65.9,83 65.9,88 108,88 	"/>
	<polygon class="st0" points="5,83 5,5 42,5 42,0 0,0 0,88 42,88 42,83 	"/>
	<polygon class="st0" points="26.5,29.9 37.2,45.7 28.3,56.8 25.5,57.1 25.5,58.8 34.4,58.8 34.4,57.1 31.3,56.8 40.7,44.8 
		42.4,44.4 42.4,56.8 39.3,57.1 39.3,58.8 50.2,58.8 50.2,57.1 47,56.8 47,43.9 58.2,43.9 58.2,56.8 55.1,57.1 55.1,58.8 65.8,58.8 
		65.8,57 62.6,56.7 62.6,44.9 75.1,44.9 75.1,56.8 71.9,57.1 71.9,58.8 82.6,58.8 82.6,57 79.4,56.7 79.4,30 82.6,29.6 82.6,27.9 
		71.9,27.9 71.9,29.6 75.1,30 75.1,42.5 62.6,42.5 62.6,30 65.8,29.6 65.8,27.9 55.1,27.9 55.1,29.6 58.2,30 58.2,41.9 47,41.9 
		47,30 50.2,29.6 50.2,27.9 39.3,27.9 39.3,29.6 42.4,30 42.4,42 40.5,42.5 32,29.9 35.1,29.6 35.1,27.9 23.9,27.9 23.9,29.6 	"/>
</g>
</svg>
