<svg xmlns="http://www.w3.org/2000/svg" viewBox="0 0 88 88"><title>Asset 3</title><g id="Layer_2" data-name="Layer 2"><g id="Layer_1-2" data-name="Layer 1"><polygon points="88 0 45.93 0 45.93 5 83 5 83 83 45.93 83 45.93 88 88 88 88 0"/><polygon points="5 83 5 5 42 5 42 0 0 0 0 88 42 88 42 83 5 83"/><polygon points="70 56.77 59.31 41 68.15 29.91 71.02 29.6 71.02 27.88 62.05 27.88 62.05 29.6 65.23 29.91 55.78 41.84 54.06 42.28 54.06 29.91 57.24 29.6 57.24 27.88 46.28 27.88 46.28 29.6 49.46 29.91 49.46 42.8 38.27 42.8 38.27 29.91 41.4 29.6 41.4 27.88 30.71 27.88 30.71 29.64 33.88 29.95 33.88 41.79 21.44 41.79 21.44 29.91 24.62 29.6 24.62 27.88 13.93 27.88 13.93 29.64 17.1 29.95 17.1 56.72 13.93 57.08 13.93 58.8 24.62 58.8 24.62 57.08 21.44 56.72 21.44 44.18 33.88 44.18 33.88 56.72 30.71 57.08 30.71 58.8 41.4 58.8 41.4 57.08 38.27 56.72 38.27 44.8 49.46 44.8 49.46 56.72 46.28 57.03 46.28 58.8 57.24 58.8 57.24 57.03 54.06 56.72 54.06 44.66 55.96 44.13 64.48 56.77 61.44 57.08 61.44 58.8 72.57 58.8 72.57 57.08 70 56.77"/></g></g></svg>