<?xml version="1.0" encoding="utf-8"?>
<!-- Generator: Adobe Illustrator 23.1.1, SVG Export Plug-In . SVG Version: 6.00 Build 0)  -->
<svg version="1.1" id="Layer_1" xmlns="http://www.w3.org/2000/svg" xmlns:xlink="http://www.w3.org/1999/xlink" x="0px" y="0px"
	 viewBox="0 0 306 202" style="enable-background:new 0 0 306 202;" xml:space="preserve">
<style type="text/css">
	.st0{fill:#DE6565;}
</style>
<path class="st0" d="M153,20.8c26.3,0,29.4,0.1,39.8,0.6c26.7,1.2,39.2,13.9,40.4,40.4c0.5,10.4,0.6,13.5,0.6,39.8
	c0,26.3-0.1,29.4-0.6,39.8c-1.2,26.5-13.7,39.2-40.4,40.4c-10.4,0.5-13.5,0.6-39.8,0.6c-26.3,0-29.4-0.1-39.8-0.6
	c-26.8-1.2-39.2-13.9-40.4-40.4c-0.5-10.4-0.6-13.5-0.6-39.8c0-26.3,0.1-29.4,0.6-39.8c1.2-26.5,13.7-39.2,40.4-40.4
	C123.6,20.9,126.7,20.8,153,20.8z M153,3c-26.8,0-30.1,0.1-40.6,0.6C76.6,5.2,56.7,25.1,55.1,60.9c-0.5,10.5-0.6,13.9-0.6,40.6
	s0.1,30.1,0.6,40.6c1.6,35.8,21.5,55.7,57.3,57.3c10.5,0.5,13.9,0.6,40.6,0.6s30.1-0.1,40.6-0.6c35.7-1.6,55.7-21.5,57.3-57.3
	c0.5-10.5,0.6-13.9,0.6-40.6s-0.1-30.1-0.6-40.6c-1.6-35.7-21.5-55.7-57.3-57.3C183.1,3.1,179.8,3,153,3z M153,50.9
	c-27.9,0-50.6,22.6-50.6,50.6s22.6,50.6,50.6,50.6s50.6-22.6,50.6-50.6C203.6,73.6,180.9,50.9,153,50.9z M153,134.3
	c-18.1,0-32.8-14.7-32.8-32.8c0-18.1,14.7-32.8,32.8-32.8s32.8,14.7,32.8,32.8C185.8,119.6,171.1,134.3,153,134.3z M205.6,37.1
	c-6.5,0-11.8,5.3-11.8,11.8s5.3,11.8,11.8,11.8c6.5,0,11.8-5.3,11.8-11.8S212.1,37.1,205.6,37.1z"/>
</svg>
