<svg xmlns="http://www.w3.org/2000/svg" viewBox="0 0 372.88 56.09"><defs><style>.cls-1{font-size:49.07px;font-family:Cervo-Regular, Cervo;}.cls-2{letter-spacing:0.06em;}.cls-3{letter-spacing:0.11em;}.cls-4{letter-spacing:0.05em;}.cls-5{letter-spacing:0.1em;}.cls-6{fill:#000021;}</style></defs><g id="Layer_2" data-name="Layer 2"><g id="Layer_1-2" data-name="Layer 1"><text class="cls-1" transform="translate(61 41.71)"><tspan class="cls-2">HANNAH</tspan><tspan x="142" y="0"> </tspan><tspan class="cls-3" x="151.82" y="0">KI</tspan><tspan class="cls-4" x="190.34" y="0">D</tspan><tspan class="cls-5" x="211.93" y="0">W</tspan><tspan class="cls-3" x="247.94" y="0">ELL</tspan></text><g id="decor"><g id="decor-2" data-name="decor"><path class="cls-6" d="M23,19.19l6.49,6.49L23,32.17l-6.49-6.49L23,19.19M23,15,12.27,25.68,23,36.42,33.73,25.68,23,15Z"/><path class="cls-6" d="M23.42,5.68,23,6.11l-.42-.43h.84m7.25-3H15.33L23,10.35l7.67-7.67Z"/><path class="cls-6" d="M15.76,13.35l-.43.42-.42-.42h.85m7.24-3H7.67L15.33,18,23,10.35Z"/><path class="cls-6" d="M8.09,21l-.42.42L7.24,21h.85m7.24-3H0l7.67,7.66L15.33,18Z"/><path class="cls-6" d="M38.76,21l-.43.42L37.91,21h.85M46,18H30.67l7.66,7.66L46,18Z"/><path class="cls-6" d="M31.09,13.35l-.42.42-.43-.42h.85m7.24-3H23L30.67,18l7.66-7.67Z"/><path class="cls-6" d="M23,45.26l.42.42h-.84l.42-.42M23,41l-7.67,7.66H30.67L23,41Z"/><path class="cls-6" d="M15.33,37.59l.43.43h-.85l.42-.43m0-4.24L7.67,41H23l-7.67-7.67Z"/><path class="cls-6" d="M7.67,29.93l.42.42H7.24l.43-.42m0-4.25L0,33.35H15.33L7.67,25.68Z"/><path class="cls-6" d="M38.33,29.93l.43.42h-.85l.42-.42m0-4.25-7.66,7.67H46l-7.67-7.67Z"/><path class="cls-6" d="M30.67,37.59l.42.43h-.85l.43-.43m0-4.24L23,41H38.33l-7.66-7.67Z"/></g></g></g></g></svg>