<svg xmlns="http://www.w3.org/2000/svg" viewBox="0 0 366.75 46"><defs><style>.cls-1{fill:#000021;}</style></defs><g id="Layer_2" data-name="Layer 2"><g id="Layer_1-2" data-name="Layer 1"><path d="M67.58,38c0,.74-.25,1-1,1H64.44c-.74,0-1-.25-1-1V5.66c0-.74.25-1,1-1h2.15c.74,0,1,.25,1,1V18c0,1,0,1,1,1h4.51c1,0,1,0,1-1V5.66c0-.74.25-1,1-1h2.16c.74,0,1,.25,1,1V38c0,.74-.25,1-1,1H75c-.73,0-1-.25-1-1V23.81c0-1,0-1-1-1H68.56c-1,0-1,0-1,1Z"/><path d="M99.28,39c-.64,0-.94,0-1.08-.74l-.54-3c-.2-1-.2-1-1.08-1H90.83c-.93,0-.93,0-1.12,1l-.54,3c-.15.74-.45.74-1.08.74H85.93c-.49,0-1,0-.84-.84L91.28,5.56c.14-.74.29-.89,1.08-.89H95c.78,0,.93.15,1.07.89l6.19,32.63c.15.84-.35.84-.84.84Zm-8.59-9.57c-.15,1-.15,1,.83,1h4.32c1,0,1,0,.83-1L93.88,12.82a.2.2,0,0,0-.4,0Z"/><path d="M123.81,39a.9.9,0,0,1-1-.59l-9.13-22c-.1-.34-.39-.24-.39,0V38c0,.74-.25,1-1,1h-2.16c-.74,0-1-.25-1-1V5.66c0-.74.24-1,1-1H112c.54,0,.79.1,1,.64l9.13,22c.1.29.39.24.39,0V5.66c0-.74.25-1,1-1h2.16c.74,0,1,.25,1,1V38c0,.74-.25,1-1,1Z"/><path d="M149.08,39a.9.9,0,0,1-1-.59l-9.13-22c-.1-.34-.39-.24-.39,0V38c0,.74-.25,1-1,1h-2.16c-.74,0-1-.25-1-1V5.66c0-.74.24-1,1-1h1.81c.54,0,.79.1,1,.64l9.13,22c.1.29.39.24.39,0V5.66c0-.74.25-1,1-1h2.15c.74,0,1,.25,1,1V38c0,.74-.25,1-1,1Z"/><path d="M173,39c-.64,0-.94,0-1.08-.74l-.54-3c-.2-1-.2-1-1.08-1h-5.75c-.93,0-.93,0-1.12,1l-.54,3c-.15.74-.45.74-1.08.74h-2.16c-.49,0-1,0-.84-.84L165,5.56c.14-.74.29-.89,1.08-.89h2.65c.78,0,.93.15,1.08.89L176,38.19c.15.84-.34.84-.84.84Zm-8.59-9.57c-.15,1-.15,1,.83,1h4.32c1,0,1,0,.83-1l-2.79-16.64a.2.2,0,0,0-.39,0Z"/><path d="M187,38c0,.74-.25,1-1,1h-2.16c-.74,0-1-.25-1-1V5.66c0-.74.24-1,1-1H186c.73,0,1,.25,1,1V18c0,1,0,1,1,1h4.51c1,0,1,0,1-1V5.66c0-.74.24-1,1-1h2.16c.73,0,1,.25,1,1V38c0,.74-.25,1-1,1h-2.16c-.74,0-1-.25-1-1V23.81c0-1,0-1-1-1H188c-1,0-1,0-1,1Z"/><path d="M218.41,39h-2.16c-.73,0-1-.25-1-1V5.66c0-.74.25-1,1-1h2.16c.74,0,1,.25,1,1V20.82c0,.34.3.34.4.1l6.67-15.51c.34-.74.44-.74,1.08-.74h2.55c.39,0,.93.2.54,1L225.33,18c-.1.25-.1.25,0,.64L230.63,38c.2.74-.15,1-.88,1h-2a1.12,1.12,0,0,1-1.27-1l-3.78-13.88c0-.25-.29-.3-.39-.05l-2.75,6.38a1.9,1.9,0,0,0-.2,1.08V38C219.39,38.78,219.15,39,218.41,39Z"/><path d="M242.5,39h-2.15c-.74,0-1-.25-1-1V5.66c0-.74.25-1,1-1h2.15c.74,0,1,.25,1,1V38C243.49,38.78,243.24,39,242.5,39Z"/><path d="M260.66,4.67c4.07,0,7.85,2.56,7.85,9.33V29.7c0,6.77-3.78,9.33-7.85,9.33h-5.89c-.73,0-1-.25-1-1V5.66c0-.74.25-1,1-1ZM258.89,35.2h1.77c2.16,0,3.73-1.28,3.73-5.3V13.8c0-4-1.57-5.3-3.73-5.3h-1.77c-1,0-1,0-1,1V34.17C257.91,35.2,257.91,35.2,258.89,35.2Z"/><path d="M288.24,15.91,283.72,38c-.14.74-.14,1-1.13,1h-1.12c-.89,0-1-.25-1.13-1L274.2,5.66c-.14-.69.05-1,.84-1h2.16c.78,0,.93.15,1.12,1L282,26.86a.22.22,0,0,0,.44,0l4.32-21.2c.14-.79.34-1,1.08-1h1.37c.74,0,.93.2,1.08,1l4.32,21.2a.22.22,0,0,0,.44,0l3.63-21.2c.2-.84.34-1,1.13-1h2.16c.78,0,1,.3.83,1L296.63,38c-.15.74-.25,1-1.13,1h-1.62c-.88,0-1-.25-1.13-1l-4-22.13c-.05-.24-.1-.34-.25-.34S288.29,15.67,288.24,15.91Z"/><path d="M311.4,38V5.66c0-.74.24-1,1-1h10.35c.74,0,1,.25,1,1V7.52c0,.74-.24,1-1,1H316.5c-1,0-1,0-1,1V18c0,1,0,1,1,1h6.23c.74,0,1,.25,1,1v1.86c0,.74-.24,1-1,1H316.5c-1,0-1,0-1,1V34.22c0,1,0,1,1,1h6.23c.74,0,1,.24,1,1V38c0,.74-.24,1-1,1H312.38C311.64,39,311.4,38.78,311.4,38Z"/><path d="M333.53,38V5.66c0-.74.24-1,1-1h2.16c.73,0,1,.25,1,1V34.17c0,1,0,1,1,1h6.18c.74,0,1,.24,1,1V38c0,.74-.24,1-1,1H334.51C333.77,39,333.53,38.78,333.53,38Z"/><path d="M354.43,38V5.66c0-.74.25-1,1-1h2.16c.74,0,1,.25,1,1V34.17c0,1,0,1,1,1h6.19c.73,0,1,.24,1,1V38c0,.74-.25,1-1,1H355.41C354.68,39,354.43,38.78,354.43,38Z"/><g id="decor"><g id="decor-2" data-name="decor"><path class="cls-1" d="M23,16.51,29.49,23,23,29.49,16.51,23,23,16.51m0-4.24L12.27,23,23,33.73,33.73,23,23,12.27Z"/><path class="cls-1" d="M23.42,3,23,3.42,22.58,3h.84m7.25-3H15.33L23,7.67,30.67,0Z"/><path class="cls-1" d="M15.76,10.67l-.43.42-.42-.42h.85m7.24-3H7.67l7.66,7.66L23,7.67Z"/><path class="cls-1" d="M8.09,18.33l-.42.43-.43-.43h.85m7.24-3H0L7.67,23l7.66-7.67Z"/><path class="cls-1" d="M38.76,18.33l-.43.43-.42-.43h.85m7.24-3H30.67L38.33,23,46,15.33Z"/><path class="cls-1" d="M31.09,10.67l-.42.42-.43-.42h.85m7.24-3H23l7.67,7.66,7.66-7.66Z"/><path class="cls-1" d="M23,42.58l.42.42h-.84l.42-.42m0-4.25L15.33,46H30.67L23,38.33Z"/><path class="cls-1" d="M15.33,34.91l.43.42h-.85l.42-.42m0-4.24L7.67,38.33H23l-7.67-7.66Z"/><path class="cls-1" d="M7.67,27.24l.42.43H7.24l.43-.43m0-4.24L0,30.67H15.33L7.67,23Z"/><path class="cls-1" d="M38.33,27.24l.43.43h-.85l.42-.43m0-4.24-7.66,7.67H46L38.33,23Z"/><path class="cls-1" d="M30.67,34.91l.42.42h-.85l.43-.42m0-4.24L23,38.33H38.33l-7.66-7.66Z"/></g></g></g></g></svg>