<?xml version="1.0" encoding="utf-8"?>
<!-- Generator: Adobe Illustrator 27.5.0, SVG Export Plug-In . SVG Version: 6.00 Build 0)  -->
<svg version="1.1" id="Layer_1" xmlns="http://www.w3.org/2000/svg" xmlns:xlink="http://www.w3.org/1999/xlink" x="0px" y="0px"
	 viewBox="0 0 366.8 46" style="enable-background:new 0 0 366.8 46;" xml:space="preserve">
<style type="text/css">
	.st0{fill:#FFFFFF;}
</style>
<g id="Layer_2_00000016076427884264031890000017151141957650569098_">
	<g id="Layer_1-2">
		<path class="st0" d="M67.6,38c0,0.7-0.2,1-1,1h-2.1c-0.7,0-1-0.2-1-1V5.7c0-0.7,0.2-1,1-1h2.2c0.7,0,1,0.2,1,1V18c0,1,0,1,1,1h4.5
			c1,0,1,0,1-1V5.7c0-0.7,0.2-1,1-1h2.2c0.7,0,1,0.2,1,1V38c0,0.7-0.2,1-1,1H75c-0.7,0-1-0.2-1-1V23.8c0-1,0-1-1-1h-4.4
			c-1,0-1,0-1,1L67.6,38z"/>
		<path class="st0" d="M99.3,39c-0.6,0-0.9,0-1.1-0.7l-0.5-3c-0.2-1-0.2-1-1.1-1h-5.7c-0.9,0-0.9,0-1.1,1l-0.5,3
			C89,39,88.7,39,88.1,39h-2.2c-0.5,0-1,0-0.8-0.8l6.2-32.6c0.1-0.7,0.3-0.9,1.1-0.9H95c0.8,0,0.9,0.2,1.1,0.9l6.2,32.6
			c0.2,0.8-0.3,0.8-0.8,0.8L99.3,39z M90.7,29.4c-0.2,1-0.2,1,0.8,1h4.3c1,0,1,0,0.8-1l-2.8-16.6c0-0.1-0.1-0.2-0.2-0.2
			c-0.1,0-0.2,0.1-0.2,0.2l0,0L90.7,29.4z"/>
		<path class="st0" d="M123.8,39c-0.4,0.1-0.9-0.2-1-0.6l-9.1-22c-0.1-0.3-0.4-0.2-0.4,0V38c0,0.7-0.2,1-1,1h-2.2c-0.7,0-1-0.2-1-1
			V5.7c0-0.7,0.2-1,1-1h1.9c0.5,0,0.8,0.1,1,0.6l9.1,22c0.1,0.3,0.4,0.2,0.4,0V5.7c0-0.7,0.2-1,1-1h2.2c0.7,0,1,0.2,1,1V38
			c0,0.7-0.2,1-1,1H123.8z"/>
		<path class="st0" d="M149.1,39c-0.4,0.1-0.9-0.2-1-0.6l-9.1-22c-0.1-0.3-0.4-0.2-0.4,0V38c0,0.7-0.2,1-1,1h-2.2c-0.7,0-1-0.2-1-1
			V5.7c0-0.7,0.2-1,1-1h1.8c0.5,0,0.8,0.1,1,0.6l9.1,22c0.1,0.3,0.4,0.2,0.4,0V5.7c0-0.7,0.2-1,1-1h2.1c0.7,0,1,0.2,1,1V38
			c0,0.7-0.2,1-1,1H149.1z"/>
		<path class="st0" d="M173,39c-0.6,0-0.9,0-1.1-0.7l-0.5-3c-0.2-1-0.2-1-1.1-1h-5.8c-0.9,0-0.9,0-1.1,1l-0.5,3
			c-0.1,0.7-0.4,0.7-1.1,0.7h-2.2c-0.5,0-1,0-0.8-0.8L165,5.6c0.1-0.7,0.3-0.9,1.1-0.9h2.6c0.8,0,0.9,0.2,1.1,0.9l6.2,32.6
			c0.1,0.8-0.3,0.8-0.8,0.8L173,39z M164.4,29.4c-0.1,1-0.1,1,0.8,1h4.3c1,0,1,0,0.8-1l-2.8-16.6c0-0.1-0.1-0.2-0.2-0.2
			c-0.1,0-0.1,0.1-0.2,0.2L164.4,29.4z"/>
		<path class="st0" d="M187,38c0,0.7-0.2,1-1,1h-2.2c-0.7,0-1-0.2-1-1V5.7c0-0.7,0.2-1,1-1h2.2c0.7,0,1,0.2,1,1V18c0,1,0,1,1,1h4.5
			c1,0,1,0,1-1V5.7c0-0.7,0.2-1,1-1h2.2c0.7,0,1,0.2,1,1V38c0,0.7-0.2,1-1,1h-2.2c-0.7,0-1-0.2-1-1V23.8c0-1,0-1-1-1H188
			c-1,0-1,0-1,1V38z"/>
		<path class="st0" d="M218.4,39h-2.2c-0.7,0-1-0.2-1-1V5.7c0-0.7,0.2-1,1-1h2.2c0.7,0,1,0.2,1,1v15.2c0,0.3,0.3,0.3,0.4,0.1
			l6.7-15.5c0.3-0.7,0.4-0.7,1.1-0.7h2.6c0.4,0,0.9,0.2,0.5,1L225.3,18c-0.1,0.2-0.1,0.2,0,0.6l5.3,19.4c0.2,0.7-0.1,1-0.9,1h-2
			c-0.6,0.1-1.2-0.3-1.3-1c0,0,0,0,0,0l-3.8-13.9c0-0.2-0.3-0.3-0.4,0l-2.8,6.4c-0.2,0.3-0.2,0.7-0.2,1.1V38
			C219.4,38.8,219.1,39,218.4,39z"/>
		<path class="st0" d="M242.5,39h-2.1c-0.7,0-1-0.2-1-1V5.7c0-0.7,0.2-1,1-1h2.1c0.7,0,1,0.2,1,1V38C243.5,38.8,243.2,39,242.5,39z"
			/>
		<path class="st0" d="M260.7,4.7c4.1,0,7.9,2.6,7.9,9.3v15.7c0,6.8-3.8,9.3-7.9,9.3h-5.9c-0.7,0-1-0.2-1-1V5.7c0-0.7,0.2-1,1-1
			L260.7,4.7z M258.9,35.2h1.8c2.2,0,3.7-1.3,3.7-5.3V13.8c0-4-1.6-5.3-3.7-5.3h-1.8c-1,0-1,0-1,1v24.7
			C257.9,35.2,257.9,35.2,258.9,35.2z"/>
		<path class="st0" d="M288.2,15.9L283.7,38c-0.1,0.7-0.1,1-1.1,1h-1.1c-0.9,0-1-0.2-1.1-1l-6.1-32.3c-0.1-0.7,0-1,0.8-1h2.2
			c0.8,0,0.9,0.2,1.1,1l3.7,21.2c0,0.1,0.1,0.2,0.2,0.2s0.2-0.1,0.2-0.2l4.3-21.2c0.1-0.8,0.3-1,1.1-1h1.4c0.7,0,0.9,0.2,1.1,1
			l4.3,21.2c0,0.1,0.1,0.2,0.2,0.2s0.2-0.1,0.2-0.2l3.6-21.2c0.2-0.8,0.3-1,1.1-1h2.2c0.8,0,1,0.3,0.8,1L296.6,38
			c-0.1,0.7-0.2,1-1.1,1h-1.6c-0.9,0-1-0.2-1.1-1l-4-22.1c0-0.2-0.1-0.3-0.2-0.3S288.3,15.7,288.2,15.9z"/>
		<path class="st0" d="M311.4,38V5.7c0-0.7,0.2-1,1-1h10.4c0.7,0,1,0.2,1,1v1.9c0,0.7-0.2,1-1,1h-6.2c-1,0-1,0-1,1V18c0,1,0,1,1,1
			h6.2c0.7,0,1,0.2,1,1v1.9c0,0.7-0.2,1-1,1h-6.2c-1,0-1,0-1,1v10.4c0,1,0,1,1,1h6.2c0.7,0,1,0.2,1,1V38c0,0.7-0.2,1-1,1h-10.4
			C311.6,39,311.4,38.8,311.4,38z"/>
		<path class="st0" d="M333.5,38V5.7c0-0.7,0.2-1,1-1h2.2c0.7,0,1,0.2,1,1v28.5c0,1,0,1,1,1h6.2c0.7,0,1,0.2,1,1V38c0,0.7-0.2,1-1,1
			h-10.4C333.8,39,333.5,38.8,333.5,38z"/>
		<path class="st0" d="M354.4,38V5.7c0-0.7,0.2-1,1-1h2.2c0.7,0,1,0.2,1,1v28.5c0,1,0,1,1,1h6.2c0.7,0,1,0.2,1,1V38c0,0.7-0.2,1-1,1
			h-10.4C354.7,39,354.4,38.8,354.4,38z"/>
		<g id="decor">
			<g id="decor-2">
				<path class="st0" d="M23,16.5l6.5,6.5L23,29.5L16.5,23L23,16.5 M23,12.3L12.3,23L23,33.7L33.7,23L23,12.3z"/>
				<path class="st0" d="M23.4,3L23,3.4L22.6,3H23.4 M30.7,0H15.3L23,7.7L30.7,0z"/>
				<path class="st0" d="M15.8,10.7l-0.4,0.4l-0.4-0.4H15.8 M23,7.7H7.7l7.7,7.7L23,7.7z"/>
				<path class="st0" d="M8.1,18.3l-0.4,0.4l-0.4-0.4H8.1 M15.3,15.3H0L7.7,23L15.3,15.3z"/>
				<path class="st0" d="M38.8,18.3l-0.4,0.4l-0.4-0.4H38.8 M46,15.3H30.7l7.7,7.7L46,15.3z"/>
				<path class="st0" d="M31.1,10.7l-0.4,0.4l-0.4-0.4H31.1 M38.3,7.7H23l7.7,7.7L38.3,7.7z"/>
				<path class="st0" d="M23,42.6l0.4,0.4h-0.8L23,42.6 M23,38.3L15.3,46h15.3L23,38.3z"/>
				<path class="st0" d="M15.3,34.9l0.4,0.4h-0.9L15.3,34.9 M15.3,30.7l-7.7,7.7H23C23,38.3,15.3,30.7,15.3,30.7z"/>
				<path class="st0" d="M7.7,27.2l0.4,0.4H7.2L7.7,27.2 M7.7,23L0,30.7h15.3C15.3,30.7,7.7,23,7.7,23z"/>
				<path class="st0" d="M38.3,27.2l0.4,0.4h-0.8L38.3,27.2 M38.3,23l-7.7,7.7H46L38.3,23z"/>
				<path class="st0" d="M30.7,34.9l0.4,0.4h-0.9L30.7,34.9 M30.7,30.7L23,38.3h15.3C38.3,38.3,30.7,30.7,30.7,30.7z"/>
			</g>
		</g>
	</g>
</g>
</svg>
